<?xml version="1.0" encoding="utf-8"?>
<!-- Generator: Adobe Illustrator 22.1.0, SVG Export Plug-In . SVG Version: 6.00 Build 0)  -->
<svg version="1.1" id="Layer_1" xmlns="http://www.w3.org/2000/svg" xmlns:xlink="http://www.w3.org/1999/xlink" x="0px" y="0px"
	 viewBox="0 0 372 110" style="enable-background:new 0 0 372 110;" xml:space="preserve">
<style type="text/css">
	.st0{fill:#099B6E;}
	.st1{fill:#4C4759;}
	.st2{fill:#9439FA;}
</style>
<g>
	<path class="st0" d="M48.1,36.4h-2l-0.7,1.9c-2.8,7.6-9.2,12-17.6,12c-11.4,0-19.4-8.1-19.4-19.7c0-11.6,8-19.8,19.4-19.8
		c8.1,0,14.4,4.1,17.2,11.2l0.7,1.8h2h2.3h4.1L52.8,20C49.1,9.4,39.5,2.9,27.9,2.9C11.9,2.9,0.4,14.5,0.4,30.6
		c0,16,11.5,27.6,27.4,27.6c12,0,21.7-6.9,25.3-18.1l1.2-3.8h-4H48.1z"/>
	<path class="st0" d="M99.4,14.6h-2.8l-0.1,2.8l0,1.6c-3.8-3.3-8.8-5.2-14.4-5.2c-12.5,0-21.9,9.5-21.9,22.2
		c0,12.7,9.4,22.2,21.9,22.2c5.5,0,10.5-1.8,14.3-5.1l0,1.6l0.1,2.8h2.8h1.9h2.9v-2.9V17.5v-2.9h-2.9H99.4z M82.2,50.4
		c-8,0-14-6.1-14-14.3s6-14.3,14-14.3c8.1,0,13.9,6,13.9,14.3S90.3,50.4,82.2,50.4z"/>
	<path class="st0" d="M135,14.5c-4.1,0-7.8,1.2-10.7,3.5l0-0.6l-0.1-2.7h-2.8h-1.7h-2.9v2.9v37.2v2.9h2.9h2.2h2.9v-2.9V33.7
		c0-6.8,4.1-11.4,10.1-11.4h3.3h2.9v-2.9v-2.1v-2.9h-2.9H135z"/>
	<path class="st0" d="M168.5,49.7c-4.2,0-6.3-2.1-6.3-6.4V22.3h10.6h2.9v-2.9v-1.9v-2.9h-2.9h-10.6V6.5V3.6h-2.9h-2.2h-2.9v2.9v8.1
		h-5.7h-2.9v2.9v1.9v2.9h2.9h5.7v21c0,8.6,5.5,14.2,14,14.2h4.9h2.9v-2.9v-2.1v-2.9h-2.9H168.5z"/>
	<path class="st0" d="M196.8,14.7L196.8,14.7c0-6,1.3-7.2,7.3-7.2h3.1h2.9V4.5V2.6v-2.9h-2.9h-3.4c-10.3,0-14.9,4.6-14.9,14.8v0.1
		h-5.2h-2.9v2.9v1.9v2.9h2.9h5.2v32.3v2.9h2.9h2.2h2.9v-2.9V22.3h10.4h2.9v-2.9v-1.9v-2.9h-2.9H196.8z"/>
	<path class="st0" d="M235.8,14.5c-4.1,0-7.8,1.2-10.7,3.5l0-0.6l-0.1-2.7h-2.8h-1.7h-2.9v2.9v37.2v2.9h2.9h2.2h2.9v-2.9V33.7
		c0-6.8,4.1-11.4,10.1-11.4h3.3h2.9v-2.9v-2.1v-2.9H239H235.8z"/>
	<path class="st0" d="M266.3,13.9c-12.7,0-22.2,9.5-22.2,22.2c0,12.7,9.6,22.2,22.2,22.2c12.7,0,22.2-9.5,22.2-22.2
		C288.5,23.4,278.9,13.9,266.3,13.9z M266.3,50.4c-8.3,0-14.3-6-14.3-14.3s6-14.3,14.3-14.3s14.3,6,14.3,14.3S274.5,50.4,266.3,50.4
		z"/>
	<path class="st0" d="M318.1,13.9c-4.5,0-8.7,1.6-12.1,4.3l0-0.9l-0.1-2.7h-2.7h-1.7h-2.9v2.9v37.2v2.9h2.9h2.2h2.9v-2.9V33
		c0-6,5.2-11.3,11.2-11.3c8.6,0,9.9,7.1,9.9,11.4v21.6v2.9h2.9h2.2h2.9v-2.9v-22C335.6,21.4,328.6,13.9,318.1,13.9z"/>
	<path class="st0" d="M367.8,49.7h-4.7c-4.2,0-6.3-2.1-6.3-6.4V22.3h10.6h2.9v-2.9v-1.9v-2.9h-2.9h-10.6V6.5V3.6H354h-2.2H349v2.9
		v8.1h-5.7h-2.9v2.9v1.9v2.9h2.9h5.7v21c0,8.6,5.5,14.2,14,14.2h4.9h2.9v-2.9v-2.1v-2.9H367.8z"/>
</g>
<g>
	<g>
		<path class="st1" d="M162.3,100.3c0,3.4-2.4,5.8-5.7,5.8c-1.3,0-2.4-0.4-3.3-1.2l-0.4,0.8h-2.8V91h3.7v4.3
			c0.8-0.5,1.7-0.7,2.7-0.7C160,94.6,162.3,97,162.3,100.3z M158.6,100.3c0-1.4-1-2.5-2.4-2.5c-1.4,0-2.4,1.1-2.4,2.5
			c0,1.4,1,2.5,2.4,2.5C157.5,102.8,158.6,101.7,158.6,100.3z"/>
		<path class="st1" d="M174.8,94.9l-4.5,10.4c-1.5,3.3-2.8,4.5-5.6,4.5h-1.3v-3.2h1c1.4,0,1.9-0.4,2.4-1.7l-4.5-9.9h4.1l2.3,6l2.1-6
			H174.8z"/>
	</g>
	<g>
		<path class="st2" d="M223.7,94.1c0-7.2,5.4-12.4,12.8-12.4c7.4,0,12.8,5.2,12.8,12.4s-5.4,12.4-12.8,12.4
			C229,106.5,223.7,101.3,223.7,94.1z M236.4,99.3c2.9,0,5-2.1,5-5.2c0-3-2.1-5.2-5-5.2c-2.9,0-5,2.1-5,5.2
			C231.5,97.3,233.6,99.3,236.4,99.3L236.4,99.3z"/>
		<path class="st2" d="M251.1,94.1c0-7.2,5.4-12.4,12.8-12.4s12.8,5.2,12.8,12.4s-5.4,12.4-12.8,12.4S251.1,101.3,251.1,94.1z
			 M263.8,99.3c2.9,0,5-2.1,5-5.2c0-3-2.1-5.2-5-5.2s-5,2.1-5,5.2C258.9,97.3,261,99.3,263.8,99.3L263.8,99.3z"/>
		<path class="st1" d="M294.5,106.5c-9,0-15.8-6.8-15.8-15.8s6.8-15.9,15.8-15.9c7.7,0,13.7,5.2,15,12.9h-8.2
			c-1-3.1-3.5-5.1-6.7-5.1c-4.2,0-7.3,3.4-7.3,8.1c0,4.7,3.1,8.1,7.3,8.1c3.3,0,5.9-2.2,6.7-5.5h8.4
			C308.3,101.2,302.3,106.5,294.5,106.5L294.5,106.5z"/>
		<path class="st1" d="M337,82.5v23.2h-6.1l-0.7-1.7c-1.8,1.6-4.2,2.5-6.9,2.5c-7,0-12-5.2-12-12.4s5-12.3,12-12.3
			c2.7,0,5.1,0.9,6.9,2.5l0.8-1.8H337z M329.5,94.1c0-3-2.2-5.2-5.1-5.2c-3,0-5.1,2.2-5.1,5.2s2.2,5.4,5.1,5.4
			C327.4,99.5,329.5,97.1,329.5,94.1z"/>
		<path class="st1" d="M354.8,82.4v7.3h-3c-2.7,0-3.9,1.3-3.9,4.2v11.9H340V82.5h5.2l1.2,2.6c1.6-2,3.5-2.7,6.3-2.7H354.8z"/>
		<path class="st2" d="M217,75.6l-5.5,19.8l-7.2-11.6h-2.6l-7.2,11.6l-5.6-19.7c-4-2.2-9.3-2-11.9-1.4l-2.1,0.4l1.3,7.2
			c0,0,2-0.5,3-0.7c2-0.3,2.7,0.3,3.3,2c0.5,1.7,6.9,22.6,6.9,22.6h7.2l6.3-10.2l6.4,10.2h7.2l9.1-30.1
			C225.6,75.6,217,75.6,217,75.6z"/>
		<path class="st1" d="M370.7,98.7v7h-5.4c-5.1,0-8.1-3.1-8.1-8.4v-8.7V75.7h6h1.6v6.8h5.7v6.1h-5.5v7.4c0,1.7,1,2.6,2.6,2.6H370.7z
			"/>
	</g>
</g>
</svg>
