<?xml version="1.0" encoding="utf-8"?>
<!-- Generator: Adobe Illustrator 22.0.1, SVG Export Plug-In . SVG Version: 6.00 Build 0)  -->
<svg version="1.1" id="Layer_1" xmlns="http://www.w3.org/2000/svg" xmlns:xlink="http://www.w3.org/1999/xlink" x="0px" y="0px"
	 viewBox="0 0 115 42" style="enable-background:new 0 0 115 42;" xml:space="preserve">
<style type="text/css">
	.st0{fill:#9439FA;}
	.st1{fill:#4C4759;}
</style>
<g>
	<g>
		<path class="st0" d="M15,42c-4.2,0-7.3-2.9-7.3-7c0-4.1,3-7,7.3-7c4.2,0,7.3,2.9,7.3,7C22.2,39.1,19.2,42,15,42L15,42z M15,37
			c1.1,0,1.9-0.8,1.9-2c0-1.2-0.8-2-1.9-2c-1.1,0-2,0.8-2,2C13,36.2,13.8,37,15,37L15,37z"/>
	</g>
	<path class="st0" d="M33.8,1.4l-4.4,15.8l-5.8-9.2h-2.1l-5.7,9.2L11.3,1.4C8-0.3,3.8-0.1,1.6,0.3L0,0.6l1.1,5.7
		c0,0,1.6-0.4,2.4-0.6C5.1,5.5,5.7,6,6.1,7.3s5.6,18,5.6,18h5.8l5.1-8.1l5.1,8.1h5.8l7.4-24H33.8z"/>
	<g>
		<path class="st1" d="M54.1,41.8c-7.2,0-12.6-5.3-12.6-12.4c0-7.1,5.4-12.5,12.6-12.5c6.2,0,11,4.1,12,10.1h-6.6
			c-0.8-2.4-2.9-4-5.3-4c-3.3,0-5.8,2.7-5.8,6.4c0,3.7,2.5,6.3,5.8,6.3c2.6,0,4.7-1.7,5.3-4.4h6.7C65.2,37.6,60.4,41.8,54.1,41.8
			L54.1,41.8z"/>
		<path class="st1" d="M88.1,22.9v18.3h-4.9l-0.5-1.3c-1.5,1.2-3.4,1.9-5.5,1.9c-5.6,0-9.6-4.1-9.6-9.8c0-5.7,4-9.7,9.6-9.7
			c2.1,0,4.1,0.7,5.6,2l0.6-1.4L88.1,22.9z M82.1,32.1c0-2.4-1.7-4.2-4.1-4.2c-2.4,0-4.1,1.8-4.1,4.2c0,2.4,1.7,4.2,4.1,4.2
			S82.1,34.5,82.1,32.1z"/>
		<path class="st1" d="M102.3,22.9v5.8h-2.4c-2.2,0-3.2,1-3.2,3.3v9.3h-6.3V22.9h4.2l1,2c1.3-1.5,2.9-2.1,5-2.1H102.3z"/>
		<path class="st1" d="M115,35.7v5.5h-4.3c-4,0-6.5-2.5-6.5-6.5v-6.9V17.6h4.8h1.3v5.4h4.6v4.9h-4.4v5.8c0,1.3,0.8,2.1,2.1,2.1H115z
			"/>
	</g>
	<g>
		<path class="st0" d="M30.6,41.9c-4.2,0-7.3-2.9-7.3-7c0-4.1,3-7,7.3-7c4.2,0,7.3,2.9,7.3,7C37.9,39,34.8,41.9,30.6,41.9L30.6,41.9
			z M30.6,36.9c1.1,0,1.9-0.8,1.9-2c0-1.2-0.8-2-1.9-2c-1.1,0-2,0.8-2,2C28.6,36.1,29.5,36.9,30.6,36.9L30.6,36.9z"/>
	</g>
</g>
</svg>
